<mxfile host="app.diagrams.net" modified="2023-05-14T12:05:14.152Z" agent="Mozilla/5.0 (Windows NT 10.0; Win64; x64) AppleWebKit/537.36 (KHTML, like Gecko) Chrome/113.0.0.0 Safari/537.36" version="21.3.0" etag="WnuK2dH3NJgB2f02mHiQ" type="github">
  <diagram name="第 1 页" id="4WRltibiuUyNifFhu_4d">
    <mxGraphModel>
      <root>
        <mxCell id="0" />
        <mxCell id="1" parent="0" />
      </root>
    </mxGraphModel>
  </diagram>
</mxfile>
